<svg width="128" height="128" viewBox="0 0 128 128" fill="none" xmlns="http://www.w3.org/2000/svg">
  <defs>
    <linearGradient id="phuyu_grad_new" x1="18" y1="23" x2="119" y2="88" gradientUnits="userSpaceOnUse">
      <stop stop-color="#60A5FA"/> <stop offset="1" stop-color="#2563EB"/> </linearGradient>
  </defs>

  <path d="M38.5 88C27.1782 88 18 78.8218 18 67.5C18 57.3402 25.3854 48.9029 35.105 47.2435C38.223 33.3934 50.5636 23 65.5 23C76.242 23 85.6433 28.1065 91.5303 35.9869C94.4988 34.7077 97.7915 34 101.25 34C111.467 34 119.75 42.2832 119.75 52.5C119.75 53.071 119.724 53.6358 119.674 54.1939C122.955 57.1751 125 61.5034 125 66.3333C125 75.1699 117.837 82.3333 109 82.3333H38.5V88Z" fill="url(#phuyu_grad_new)"/>

  <path d="M85 40L86.5 46.5L93 48L86.5 49.5L85 56L83.5 49.5L77 48L83.5 46.5L85 40Z" fill="white"/>
</svg>