<svg xmlns="http://www.w3.org/2000/svg" viewBox="0 0 120 120" width="100%" height="100%">
    <defs>
        <linearGradient id="phuyuGrad" x1="0%" y1="0%" x2="100%" y2="100%">
            <stop offset="0%" stop-color="#0ea5e9" />
            <stop offset="100%" stop-color="#2563eb" />
        </linearGradient>
        
        <filter id="glow" x="-20%" y="-20%" width="140%" height="140%">
            <feDropShadow dx="0" dy="4" stdDeviation="5" flood-color="#1d4ed8" flood-opacity="0.3"/>
        </filter>
    </defs>
    
    <path d="M 35 85 
             A 15 15 0 0 1 35 55 
             A 24 24 0 0 1 80 50 
             A 17.5 17.5 0 0 1 80 85 Z" 
          fill="url(#phuyuGrad)" filter="url(#glow)"/>
          
    <path d="M 58 46 Q 58 56 68 56 Q 58 56 58 66 Q 58 56 48 56 Q 58 56 58 46 Z" fill="#ffffff" />
    
    <path d="M 76 36 Q 76 41 81 41 Q 76 41 76 46 Q 76 41 71 41 Q 76 41 76 36 Z" fill="#ffffff" opacity="0.8" />
</svg>